<svg width="19" height="18" viewBox="0 0 19 18" fill="none" xmlns="http://www.w3.org/2000/svg">
<path d="M5.10495 5.78995C5.27841 6.42479 5.65575 6.985 6.17885 7.38434C6.70196 7.78367 7.34184 7.99998 7.99995 7.99995H11.9999C13.178 8.00004 14.3182 8.41598 15.2195 9.17446C16.1209 9.93294 16.7255 10.9853 16.9269 12.1459C17.6056 12.3674 18.1832 12.8235 18.5558 13.4324C18.9285 14.0414 19.0719 14.7632 18.9602 15.4683C18.8486 16.1734 18.4892 16.8157 17.9466 17.2797C17.4041 17.7437 16.7139 17.999 15.9999 17.9999C15.3015 18.0005 14.6247 17.7573 14.0863 17.3123C13.548 16.8673 13.1817 16.2484 13.0508 15.5623C12.9199 14.8763 13.0324 14.166 13.3691 13.554C13.7057 12.942 14.2454 12.4667 14.8949 12.2099C14.7215 11.5751 14.3441 11.0149 13.821 10.6156C13.2979 10.2162 12.6581 9.99992 11.9999 9.99995H7.99995C6.91784 10.0015 5.86468 9.65049 4.99995 8.99995V12.1699C5.66744 12.4059 6.23004 12.8701 6.58831 13.4808C6.94657 14.0914 7.07743 14.809 6.95776 15.5067C6.83808 16.2045 6.47558 16.8375 5.93432 17.2938C5.39306 17.7502 4.7079 18.0004 3.99995 18.0004C3.29199 18.0004 2.60683 17.7502 2.06557 17.2938C1.52431 16.8375 1.16181 16.2045 1.04213 15.5067C0.92246 14.809 1.05332 14.0914 1.41159 13.4808C1.76985 12.8701 2.33245 12.4059 2.99995 12.1699V5.82995C2.33692 5.59586 1.77715 5.13639 1.4183 4.53172C1.05945 3.92704 0.924318 3.21557 1.03648 2.52143C1.14864 1.8273 1.50098 1.19459 2.032 0.733712C2.56303 0.272832 3.23903 0.0130464 3.94204 -0.00031241C4.64505 -0.0136712 5.33043 0.220245 5.87858 0.660618C6.42673 1.10099 6.80285 1.71986 6.9413 2.40923C7.07975 3.0986 6.97175 3.8147 6.63613 4.43256C6.30051 5.05043 5.7586 5.53084 5.10495 5.78995Z" fill="#6495ED"/>
</svg>
