<svg width="24" height="24" viewBox="0 0 24 24" fill="none" xmlns="http://www.w3.org/2000/svg">
<g id="Group 1269">
<path id="Vector" opacity="0.3" d="M12 24.0001C18.6667 24.0001 24 18.6668 24 12.0001C24 5.33346 18.6667 0.00012207 12 0.00012207C5.33333 0.00012207 0 5.33346 0 12.0001C0 18.6668 5.33333 24.0001 12 24.0001Z" fill="#FAED50"/>
<path id="Vector_2" fill-rule="evenodd" clip-rule="evenodd" d="M12.1333 16.0001L14.1333 17.0667C14.6666 17.4667 15.4666 17.2001 15.7333 16.5334C15.8666 16.2667 15.8666 16.0001 15.8666 15.7334L15.3333 13.4667L17.0666 11.8667C17.6 11.3334 17.6 10.6667 17.0666 10.1334C16.9333 10.0001 16.6666 9.86675 16.4 9.73342L14 9.33341L12.9333 7.20008C12.6666 6.66675 12 6.40008 11.3333 6.66675C11.0666 6.66675 9.7333 9.20008 9.7333 9.20008L7.46663 9.60008C6.79996 9.73341 6.26663 10.2667 6.39996 10.9334C6.39996 11.2001 6.5333 11.4667 6.79996 11.6001L8.5333 13.2001L7.99996 15.4667C7.99996 16.1334 8.39996 16.6667 9.06663 16.9334C9.3333 16.9334 9.59996 16.9334 9.86663 16.8001L12.1333 16.0001Z" fill="#FEC527"/>
</g>
</svg>
