<svg width="16" height="16" viewBox="0 0 16 16" fill="none" xmlns="http://www.w3.org/2000/svg">
<g clip-path="url(#clip0_379_35876)">
<path d="M14.6665 11.2801V13.2801C14.6672 13.4658 14.6292 13.6496 14.5548 13.8197C14.4804 13.9898 14.3713 14.1425 14.2345 14.268C14.0977 14.3935 13.9362 14.4891 13.7603 14.5486C13.5844 14.6081 13.398 14.6302 13.2131 14.6134C11.1617 14.3905 9.19113 13.6895 7.45979 12.5668C5.84901 11.5432 4.48335 10.1776 3.45979 8.56677C2.33311 6.82758 1.63195 4.84744 1.41313 2.78677C1.39647 2.60242 1.41838 2.41661 1.47746 2.24119C1.53654 2.06576 1.63151 1.90456 1.7563 1.76785C1.8811 1.63114 2.033 1.52191 2.20232 1.44712C2.37164 1.37233 2.55469 1.33361 2.73979 1.33344H4.73979C5.06333 1.33025 5.37699 1.44482 5.6223 1.65579C5.86761 1.86676 6.02784 2.15974 6.07313 2.48011C6.15754 3.12015 6.31409 3.74859 6.53979 4.35344C6.62949 4.59205 6.6489 4.85138 6.59573 5.10069C6.54256 5.35 6.41903 5.57885 6.23979 5.76011L5.39313 6.60677C6.34216 8.2758 7.7241 9.65774 9.39313 10.6068L10.2398 9.76011C10.4211 9.58086 10.6499 9.45734 10.8992 9.40417C11.1485 9.351 11.4078 9.37041 11.6465 9.46011C12.2513 9.68581 12.8797 9.84236 13.5198 9.92677C13.8436 9.97246 14.1394 10.1356 14.3508 10.3851C14.5622 10.6346 14.6746 10.9532 14.6665 11.2801Z" stroke="#757575" stroke-width="1.5" stroke-linecap="round" stroke-linejoin="round"/>
</g>
<defs>
<clipPath id="clip0_379_35876">
<rect width="16" height="16" fill="white"/>
</clipPath>
</defs>
</svg>
