<svg width="24" height="24" viewBox="0 0 24 24" fill="none" xmlns="http://www.w3.org/2000/svg">
<g id="wallet">
<path id="Vector" d="M19.5 6.75012H4.5C3.25736 6.75012 2.25 7.75748 2.25 9.00012V18.0001C2.25 19.2428 3.25736 20.2501 4.5 20.2501H19.5C20.7426 20.2501 21.75 19.2428 21.75 18.0001V9.00012C21.75 7.75748 20.7426 6.75012 19.5 6.75012Z" stroke="#212121" stroke-width="1.5" stroke-linejoin="round"/>
<path id="Vector_2" d="M19.2825 6.7501V5.34385C19.2824 4.99895 19.2062 4.65832 19.0592 4.34627C18.9123 4.03422 18.6984 3.75844 18.4326 3.53861C18.1668 3.31878 17.8558 3.16031 17.5217 3.07452C17.1877 2.98873 16.8388 2.97772 16.5 3.04229L4.155 5.14932C3.6189 5.25148 3.13526 5.53753 2.78749 5.95812C2.43972 6.37871 2.24963 6.90748 2.25 7.45323V9.7501" stroke="#212121" stroke-width="1.5" stroke-linejoin="round"/>
<path id="Vector_3" d="M17.25 15.0001C16.9533 15.0001 16.6633 14.9121 16.4166 14.7473C16.17 14.5825 15.9777 14.3482 15.8642 14.0741C15.7506 13.8001 15.7209 13.4985 15.7788 13.2075C15.8367 12.9165 15.9796 12.6492 16.1893 12.4395C16.3991 12.2297 16.6664 12.0868 16.9574 12.0289C17.2483 11.9711 17.5499 12.0008 17.824 12.1143C18.0981 12.2278 18.3324 12.4201 18.4972 12.6668C18.662 12.9134 18.75 13.2035 18.75 13.5001C18.75 13.8979 18.592 14.2795 18.3107 14.5608C18.0294 14.8421 17.6478 15.0001 17.25 15.0001Z" fill="#212121"/>
</g>
</svg>
