<svg width="25" height="24" viewBox="0 0 25 24" fill="none" xmlns="http://www.w3.org/2000/svg">
<g id="Group">
<path id="Vector" d="M22.4873 20H2.8623V18H3.84355V11.031C3.84355 6.043 7.79799 2 12.6748 2C17.5516 2 21.5061 6.043 21.5061 11.031V18H22.4873V20ZM5.80605 18H19.5436V11.031C19.5436 7.148 16.4683 4 12.6748 4C8.88129 4 5.80605 7.148 5.80605 11.031V18ZM10.2217 21H15.1279C15.1279 21.663 14.8695 22.2989 14.4094 22.7678C13.9494 23.2366 13.3254 23.5 12.6748 23.5C12.0242 23.5 11.4002 23.2366 10.9402 22.7678C10.4801 22.2989 10.2217 21.663 10.2217 21Z" fill="white"/>
</g>
</svg>
